<?xml version="1.0" encoding="iso-8859-1"?>
<!-- Generator: Adobe Illustrator 16.0.0, SVG Export Plug-In . SVG Version: 6.00 Build 0)  -->
<!DOCTYPE svg PUBLIC "-//W3C//DTD SVG 1.1//EN" "http://www.w3.org/Graphics/SVG/1.1/DTD/svg11.dtd">
<svg version="1.1" id="Capa_1" xmlns="http://www.w3.org/2000/svg" xmlns:xlink="http://www.w3.org/1999/xlink" x="0px" y="0px"
	 width="897.4px" height="897.4px" viewBox="0 0 897.4 897.4" style="enable-background:new 0 0 897.4 897.4;" xml:space="preserve"
	>
<g>
	<g>
		<path d="M171.9,897.4h276.8h276.8c12.4,0,21.8-11.2,19.7-23.4c-3.2-18.8-10.8-46.5-28.3-74.7c-31.8-51.2-58.601-98.899-63.7-162.7
			c-4.6-59.1,10.7-143.1,32.8-207.199c-26.3,18.399-57.5,28.3-90.2,28.3c-40.899-0.101-80.399-16.2-109.6-44.9
			c-16.9-16.6-29.6-36.399-37.5-58c-7.9,21.601-20.6,41.4-37.5,58c-29.2,28.7-68.7,44.8-109.6,44.9c-32.7,0.1-64-9.8-90.2-28.3
			c22.1,64.1,37.4,148.1,32.8,207.199c-5,63.801-31.8,111.601-63.7,162.7c-17.5,28.101-25,55.9-28.3,74.7
			C150.1,886.2,159.5,897.4,171.9,897.4z M448.7,687.5c14.1,0,25.6,11.5,25.6,25.6c0,14.101-11.5,25.601-25.6,25.601
			c-14.1,0-25.6-11.5-25.6-25.601C423.101,699,434.601,687.5,448.7,687.5z"/>
		<path d="M200.5,149.7l-9.2,31.9l-6.5,22.4l-12.2,42.4c-5.4,14.7-8.4,30.6-8.4,47.2c0,31.9,10.9,61.2,29.1,84.5
			c25.9,33,66.6,53.9,112.2,52.5c72.601-2.199,128.2-61.6,129.601-134.2c0.3-15.7,26.7-15.7,27,0c1.399,72.6,57,132,129.6,134.2
			c45.5,1.4,86.3-19.399,112.2-52.5c18.3-23.3,29.1-52.6,29.1-84.5c0-16.6-3-32.5-8.399-47.2l0,0l-12-42.4l-6.5-22.4l-9.2-31.9
			c-8.4-29.1-29.9-51.8-57-62.3l0,0c0,0,0,0-0.101,0c-0.3-0.1-0.6-0.2-0.899-0.3C631.8,84.5,587.3,68.2,555,60.9
			c-21.899-5-35.7-27.2-43.1-43.4C507.201,6.8,496.5,0,484.8,0h-36.1h-36.1c-11.7,0-22.4,6.8-27.301,17.5
			c-7.399,16.2-21.199,38.4-43.1,43.4c-32.3,7.3-76.8,23.6-83.9,26.2c-0.3,0.1-0.6,0.2-0.9,0.3c-0.1,0-0.1,0-0.1,0l0,0
			C230.4,97.9,208.9,120.6,200.5,149.7z M612.101,320.3c14.1,0,25.6,11.5,25.6,25.601c0,14.1-11.5,25.6-25.6,25.6
			C598,371.5,586.5,360,586.5,345.9C586.5,331.8,597.901,320.3,612.101,320.3z M283.601,320.3c14.1,0,25.6,11.5,25.6,25.601
			c0,14.1-11.5,25.6-25.6,25.6C269.5,371.5,258,360,258,345.9C258,331.8,269.5,320.3,283.601,320.3z"/>
	</g>
</g>
<g>
</g>
<g>
</g>
<g>
</g>
<g>
</g>
<g>
</g>
<g>
</g>
<g>
</g>
<g>
</g>
<g>
</g>
<g>
</g>
<g>
</g>
<g>
</g>
<g>
</g>
<g>
</g>
<g>
</g>
</svg>
